<?xml version="1.0"?>
<svg width="130" height="74" xmlns="http://www.w3.org/2000/svg" xmlns:svg="http://www.w3.org/2000/svg">
 <g class="layer">
  <title>Layer 1</title>
  <path clip-rule="evenodd" d="m63.544445,73.8l7.8,0c1.3,-0.2 2.6,-0.8 3.6,-1.6c0.6,-1 1.1,-2.1 1.1,-3.4c0,0 -0.2,-10.4 4.7,-12s10.9,10.1 17.4,14.6c4.9,3.4 8.6,2.6 8.6,2.6l17.4,-0.3s9.1,-0.5 4.7,-7.6c-0.3,-0.6 -2.6,-5.2 -13,-14.9c-10.9,-10.1 -9.4,-8.4 3.7,-26c8,-10.6 11.2,-17.1 10.2,-20s-6.8,-1.9 -6.8,-1.9l-19.5,0.2c-0.8,-0.2 -1.8,0 -2.6,0.5s-1.3,1.3 -1.8,2.1c-1.9,5.2 -4.4,10.4 -7.1,15.3c-8.8,14.8 -12.2,15.6 -13.6,14.6c-3.2,-2.1 -2.4,-8.6 -2.4,-13.2c0,-14.3 2.1,-20.3 -4.2,-21.8c-2.9,-0.6 -6,-1 -9.1,-1c-7,0 -12.8,0 -16.2,1.6c-2.4,1 -4,3.4 -3,3.4c2.3,0.2 4.2,1.3 5.8,2.9c1.9,2.8 1.9,8.8 1.9,8.8s1.1,16.9 -2.8,19c-2.6,1.5 -6.2,-1.5 -14,-14.9c-2.6,-4.7 -5,-9.4 -7,-14.5c-0.3,-0.8 -1,-1.6 -1.6,-2.1c-0.3,-0.2 -0.6,-0.5 -1,-0.5c-1,-0.5 -2.1,-0.6 -3.2,-0.6l-17.4,0.2s-2.8,0 -3.7,1.3c-1,1.3 0,3.2 0,3.2s14.6,34.1 31,51.2c15.1,15.9 32.1,14.8 32.1,14.8z" fill="white" fill-rule="evenodd" id="Icon"/>
 </g>
</svg>