<svg width="20" height="26" viewBox="0 0 20 26" fill="none" xmlns="http://www.w3.org/2000/svg">
<path d="M0.758483 0C0.319361 0 0 0.259675 0 0.616729V25.3833C0 25.7403 0.319361 26 0.758483 26H19.2415C19.6806 26 20 25.7403 20 25.3833V0.616729C20 0.259675 19.6806 0 19.2415 0L0.758483 0ZM3.99202 3.24594H15.9681V19.4757H3.99202V3.24594ZM9.98004 21.0986C11.0978 21.0986 11.976 21.8127 11.976 22.7216C11.976 23.6305 11.0978 24.3446 9.98004 24.3446C8.86228 24.3446 7.98403 23.6305 7.98403 22.7216C7.98403 21.8127 8.86228 21.0986 9.98004 21.0986Z" fill="black"/>
</svg>
